# OBJ written from /Users/dathedix/Art/Demiurge/tile 11 - city 3 sides wall.obj
# Units	meters

o Mesh
v 9.9675 14.025 -10.0374
v 9.9675 14.025 9.96262
v -9.9958 14.025 -10.0374
v -4.5875 14.0449 0.0726244
v -9.9958 -0.024977 -10.0374
v -4.5875 -0.00507049 0.072625
v 9.9675 -0.0249761 9.96262
v 9.9675 -0.024977 -10.0374
v -10.0325 14.025 9.96262
v -10.0325 -0.0249761 9.96262
v -10.1 -1.03312e-07 2
v -10.1 -2.75972e-07 -1.95
v -3.7 -2.75972e-07 -1.95
v -3.7 -1.03312e-07 2
v -10.1 7.04 2
v -10.1 7.04 -1.95
v -3.7 7.04 -1.95
v -3.7 7.04 2
v -10.0625 0.0050237 9.96262
v -10.0625 0.00502282 -10.0374
v 9.9375 0.00502282 -10.0374
v 9.9375 0.0050237 9.96262
v -10.0625 -29.975 9.96263
v 9.9375 -29.975 9.96263
v 9.9375 -29.975 -10.0374
v -10.0625 -29.975 -10.0374
vn -0.881762 3.20173e-08 0.471695
vn 1 0 0
vn 0 -6.78772e-08 -1
vn 0 1 0
vn 0 -1 4.37722e-08
vn -0.87601 -3.27367e-08 -0.482293
vn 0 6.78772e-08 1
vn 0 -1 4.37114e-08
vn -1 0 0
vn 0 -5.07994e-08 -1
vn 0 5.07994e-08 1
vn 0 3.18104e-08 1
vn 0 -3.18104e-08 -1
vn 0 1 -4.37023e-08
vn 0 -1 0
vt 0 0
vt 1 0
vt 1 1
vt 0 1
vt 0 0.00183483
vt 0 0.5
vt 0.25 0
vt 0.5 0
vt 0.5 0.333333
vt 0.25 0.333333
vt 1 0.666667
vt 0.75 0.666667
vt 0.75 0.333333
vt 1 0.333333
vt 0.5 0.666667
vt 0.25 0.666667
vt 0 0.666667
vt 0 0.333333
vt 0.25 1
vt 0.5 1
mtllib tile 11 - city 3 sides wall.mtl
usemtl Golden_032Grass
g Default
f 19/2/14 22/3/14 21/4/14 20/1/14
usemtl Ground_032
f 24/3/12 22/3/12 19/2/12 23/2/12
f 25/4/2 21/4/2 22/3/2 24/3/2
f 26/1/13 20/1/13 21/4/13 25/4/13
f 23/2/9 19/2/9 20/1/9 26/1/9
f 23/2/15 26/1/15 25/4/15 24/3/15
usemtl City
f 3/1/1 5/2/1 6/3/1 4/4/1
f 2/1/2 7/2/2 8/3/2 1/4/2
f 1/1/3 8/2/3 5/3/3 3/4/3
f 2/3/4 1/4/4 3/5/4 4/4/4 9/2/4
f 7/3/5 10/3/5 6/3/5 5/2/5 8/3/5
f 10/3/6 9/6/6 4/1/6 6/2/6
f 9/6/7 10/2/7 7/3/7 2/4/7
usemtl Wall
f 11/7/8 12/8/8 13/9/8 14/10/8
f 15/11/9 16/12/9 12/13/9 11/14/9
f 16/12/10 17/15/10 13/9/10 12/13/10
f 17/15/2 18/16/2 14/10/2 13/9/2
f 18/16/11 15/17/11 11/18/11 14/10/11
f 15/19/4 18/16/4 17/15/4 16/20/4
