# OBJ written from /Users/dathedix/Art/Demiurge/tile 12 - city 2 caps.obj
# Units	meters

o Mesh
v -10.0393 0.0250244 9.91941
v 9.96071 0.0250244 9.91941
v 0.000714205 0.0450246 4.47441
v -10.0393 14.0249 9.97083
v 9.96071 14.0249 9.97083
v 0.000714205 14.0449 4.52584
v 9.9375 0.0250244 9.96262
v 9.9375 0.0250235 -10.0374
v 4.4925 0.0450244 -0.00237491
v 9.98892 14.0249 9.96262
v 9.98892 14.0249 -10.0374
v 4.54392 14.0449 -0.00237553
v -10.0625 -29.975 9.96263
v 9.9375 -29.975 9.96263
v 9.9375 -29.975 -10.0374
v -10.0625 -29.975 -10.0374
v -10.0625 0.0050237 9.96262
v -10.0625 0.00502282 -10.0374
v 9.9375 0.00502282 -10.0374
v 9.9375 0.0050237 9.96262
vn 0.479688 0.00322281 -0.877433
vn -0.476737 0.00322871 -0.87904
vn 0 -0.00367321 0.999993
vn 0 0.999993 0.00367315
vn -0.878941 0.00322836 -0.47692
vn -0.877535 0.00322324 0.479502
vn 0.999993 -0.00367328 1.60787e-10
vn 0.00367315 0.999993 0
vn 0 3.18104e-08 1
vn 1 0 0
vn 0 -3.18104e-08 -1
vn -1 0 0
vn 0 1 -4.37023e-08
vn 0 -1 0
vt 0 1
vt 1 1
vt 1 0
vt 0 0
mtllib tile 12 - city 2 caps.mtl
usemtl Golden_032Grass
g Default
f 17//13 20//13 19//13 18//13
usemtl Ground_032
f 14//9 20//9 17//9 13//9
f 15//10 19//10 20//10 14//10
f 16//11 18//11 19//11 15//11
f 13//12 17//12 18//12 16//12
f 13//14 16//14 15//14 14//14
usemtl City
f 6//1 5//1 2//1 3//1
f 3//2 1//2 4//2 6//2
f 1//3 2//3 5//3 4//3
f 5//4 6//4 4//4
f 9//5 12//5 11//5 8//5
f 9//6 7//6 10//6 12//6
f 7//7 8//7 11//7 10//7
f 11//8 12//8 10//8
