# OBJ written from /Users/dathedix/Art/Demiurge/tile 9 - all city.obj
# Units	meters

o Mesh
v -10.0325 14.025 9.96262
v -10.0325 14.025 -10.0374
v 9.9675 14.025 -10.0374
v 9.9675 14.025 9.96262
v -10.0325 -29.975 9.96263
v 9.9675 -29.975 9.96263
v 9.9675 -29.975 -10.0374
v -10.0325 -29.975 -10.0374
vn 0 4.33488e-08 1
vn 1 0 0
vn 0 -4.33488e-08 -1
vn -1 0 0
vn 0 1 0
vn 0 -1 0
vt 1 1
vt 1 0
vt 0 1
vt 0 0
mtllib tile 9 - all city.mtl
usemtl City
g Default
f 6/1/1 4/1/1 1/2/1 5/2/1
f 7/3/2 3/3/2 4/1/2 6/1/2
f 8/4/3 2/4/3 3/3/3 7/3/3
f 5/2/4 1/2/4 2/4/4 8/4/4
f 1/2/5 4/1/5 3/3/5 2/4/5
f 5/2/6 8/4/6 7/3/6 6/1/6
