# OBJ written from /Users/dathedix/Art/Demiurge/tile 14 - one city wall.obj
# Units	meters

o Mesh
v 9.9375 0.0250244 9.96262
v 9.9375 0.0250235 -10.0374
v 4.4925 0.0450244 -0.147375
v 9.98892 14.0249 9.96262
v 9.98892 14.0249 -10.0374
v 4.54392 14.0449 -0.147376
v 1.925 2.49657e-07 10.075
v -2.025 2.49657e-07 10.075
v -2.025 -6.28942e-07 -10.025
v 1.925 -6.28942e-07 -10.025
v 1.925 7.04 10.075
v -2.025 7.04 10.075
v -2.025 7.04 -10.025
v 1.925 7.04 -10.025
v -10.0625 0.0050237 9.96262
v -10.0625 0.00502282 -10.0374
v 9.9375 0.00502282 -10.0374
v 9.9375 0.0050237 9.96262
v -10.0625 -29.975 9.96263
v 9.9375 -29.975 9.96263
v 9.9375 -29.975 -10.0374
v -10.0625 -29.975 -10.0374
vn -0.876003 0.00321757 -0.482295
vn -0.880422 0.00323384 0.47418
vn 0.999993 -0.00367328 1.60787e-10
vn 0.00367315 0.999993 0
vn 0 -1 4.37114e-08
vn 0 0 1
vn -1 0 0
vn 0 0 -1
vn 1 0 0
vn 0 1 -4.74465e-08
vn 0 3.18104e-08 1
vn 0 -3.18104e-08 -1
vn 0 1 -4.37023e-08
vn 0 -1 0
vt 0 1
vt 1 1
vt 0.25 0
vt 0.5 0
vt 0.5 0.333333
vt 0.25 0.333333
vt 1 0.666667
vt 0.75 0.666667
vt 0.75 0.333333
vt 1 0.333333
vt 0.5 0.666667
vt 0.25 0.666667
vt 0 0.666667
vt 0 0.333333
vt 0.25 1
vt 0.5 1
vt 1 0
vt 0 0
mtllib tile 14 - one city wall.mtl
usemtl Golden_032Grass
g Default
f 15//13 18//13 17//13 16//13
usemtl Ground_032
f 20//11 18//11 15//11 19//11
f 21//9 17//9 18//9 20//9
f 22//12 16//12 17//12 21//12
f 19//7 15//7 16//7 22//7
f 19//14 22//14 21//14 20//14
usemtl City
f 3//1 6//1 5//1 2//1
f 3//2 1//2 4//2 6//2
f 1//3 2//3 5//3 4//3
f 5//4 6//4 4//4
usemtl Wall
f 7//5 8//5 9//5 10//5
f 11//6 12//6 8//6 7//6
f 12//7 13//7 9//7 8//7
f 13//8 14//8 10//8 9//8
f 14//9 11//9 7//9 10//9
f 11//10 14//10 13//10 12//10
