# OBJ written from /Users/dathedix/Art/Demiurge/tile 15 - one city corner wall.obj
# Units	meters

o Mesh
v 9.9375 0.0250244 9.96262
v 9.9375 0.0250235 -10.0374
v 4.4925 0.0450244 -0.147375
v 9.98892 14.0249 9.96262
v 9.98892 14.0249 -10.0374
v 4.54392 14.0449 -0.147376
v 2.032 0.0250244 9.96262
v -10.0625 0.0250239 -1.99499
v -10.0625 0.025024 1.99806
v -2.0257 0.0450245 2.00064
v -2.0293 0.0250244 9.96262
v 2.032 7.02502 9.96262
v -2.0281 7.04513 -1.99305
v -10.0625 7.02508 -1.99499
v -10.0625 7.02508 1.99806
v -2.0257 7.04513 2.00064
v -2.0293 7.02507 9.96262
v 2.0281 0.0450238 -1.99305
v 2.0281 7.04513 -1.99305
v -2.0281 7.04511 -2
v 2.00867 0.0250239 -2
v 2.00867 7.02502 -2
v -10.0625 0.0050237 9.96262
v -10.0625 0.00502282 -10.0374
v 9.9375 0.00502282 -10.0374
v 9.9375 0.0050237 9.96262
v -10.0625 -29.975 9.96263
v 9.9375 -29.975 9.96263
v 9.9375 -29.975 -10.0374
v -10.0625 -29.975 -10.0374
vn -0.876003 0.00321757 -0.482295
vn -0.880422 0.00323384 0.47418
vn 0.999993 -0.00367328 1.60787e-10
vn 0.00367315 0.999993 0
vn -1 0 0
vn -0.000321949 3.40593e-08 1
vn -1 -1.54045e-11 -0.000452284
vn 0 0 1
vn 0.999998 0 -0.00194988
vn 1.1741e-05 1 -6.27541e-08
vn 0.000160516 -5.10893e-08 -1
vn 0 3.18104e-08 1
vn 1 0 0
vn 0 -3.18104e-08 -1
vn 0 1 -4.37023e-08
vn 0 -1 0
vt 0 1
vt 1 1
vt 1 0
vt 0 0
mtllib tile 15 - one city corner wall.mtl
usemtl Golden_032Grass
g Default
f 23//15 26//15 25//15 24//15
usemtl Ground_032
f 28//12 26//12 23//12 27//12
f 29//13 25//13 26//13 28//13
f 30//14 24//14 25//14 29//14
f 27//5 23//5 24//5 30//5
f 27//16 30//16 29//16 28//16
usemtl City
f 3//1 6//1 5//1 2//1
f 3//2 1//2 4//2 6//2
f 1//3 2//3 5//3 4//3
f 5//4 6//4 4//4
usemtl Wall
f 8//5 9//5 15//5 14//5
f 10//6 16//6 15//6 9//6
f 10//7 11//7 17//7 16//7
f 11//8 7//8 12//8 17//8
f 7//9 21//9 22//9 12//9
f 12//10 22//10 20//10 13//10 14//10 15//10 16//10 17//10
f 8//11 14//11 19//11 22//11 21//11 18//11
