# OBJ written from /Users/dathedix/Art/Demiurge/tile 17 - hourglass city.obj
# Units	meters

o Mesh
v -10.0625 0.0050237 9.96262
v -10.0625 0.00502282 -10.0374
v 9.9375 0.00502282 -10.0374
v 9.9375 0.0050237 9.96262
v -10.0625 -29.975 9.96263
v 9.9375 -29.975 9.96263
v 9.9375 -29.975 -10.0374
v -10.0625 -29.975 -10.0374
v 9.9375 0.0250244 9.96262
v 9.9375 0.0250235 -10.0374
v 4.4925 0.0450244 -0.147375
v 9.98892 14.0249 9.96262
v 9.98892 14.0249 -10.0374
v 4.54392 14.0449 -0.147376
v 2.032 0.025023 -10.0326
v -10.0625 0.0250236 1.97499
v -10.0625 0.0250234 -2.01806
v -2.0257 0.0450238 -2.02064
v -2.0293 0.025023 -10.0326
v 2.032 7.02502 -10.0326
v -2.0281 7.04513 1.97305
v -10.0625 7.02508 1.97499
v -10.0625 7.02508 -2.01806
v -2.0257 7.04513 -2.02064
v -2.0293 7.02507 -10.0326
v 2.0281 0.0450235 1.97305
v 2.0281 7.04513 1.97305
v -2.0281 7.04511 1.98
v 2.00867 0.0250236 1.98
v 2.00867 7.02502 1.98
v 9.92201 14.04 9.9507
v 4.41099 14.04 -0.00864328
v 9.93701 14.04 -10.0356
v -10.056 14.04 -10.0334
v -5.145 14.04 -0.0103583
v -10.056 14.04 9.9663
v -10.056 -0.0499996 9.9663
v -5.145 -0.05 -0.0103577
v -10.056 -0.0500004 -10.0334
v 9.93701 -0.0500004 -10.0356
v 4.41099 -0.05 -0.00864267
v 9.92201 -0.0499996 9.95071
v -10.0625 0.0050237 9.96262
v -10.0625 0.00502282 -10.0374
v 9.9375 0.00502282 -10.0374
v 9.9375 0.0050237 9.96262
v -10.0625 -29.975 9.96263
v 9.9375 -29.975 9.96263
v 9.9375 -29.975 -10.0374
v -10.0625 -29.975 -10.0374
vn 0 1 0
vn -0.897192 -2.98923e-08 -0.441642
vn -0.898001 1.92237e-08 0.439994
vn -0.000110331 -6.76845e-08 -1
vn 0.875803 3.26692e-08 0.482669
vn 0.874975 -2.11537e-08 -0.484168
vn 0.000780391 6.76845e-08 1
vn 4.83857e-12 -1 4.3855e-08
vn 0 3.18104e-08 1
vn 1 0 0
vn 0 -3.18104e-08 -1
vn -1 0 0
vn 0 1 -4.37023e-08
vn 0 -1 0
vt 0 1
vt 0 0
vt 1 1
vt 1 0
mtllib tile 17 - hourglass city.mtl
usemtl Golden_032Grass
g Default
f 43/4/13 46/3/13 45/1/13 44/2/13
usemtl Ground_032
f 48/3/9 46/3/9 43/4/9 47/4/9
f 49/1/10 45/1/10 46/3/10 48/3/10
f 50/2/11 44/2/11 45/1/11 49/1/11
f 47/4/12 43/4/12 44/2/12 50/2/12
f 47/4/14 50/2/14 49/1/14 48/3/14
usemtl City
f 33/1/1 34/1/1 35/1/1 36/2/1 31/1/1 32/1/1
f 36/2/2 35/1/2 38/3/2 37/4/2
f 35/2/3 34/1/3 39/3/3 38/4/3
f 34/2/4 33/1/4 40/3/4 39/4/4
f 33/2/5 32/1/5 41/3/5 40/4/5
f 32/2/6 31/1/6 42/3/6 41/4/6
f 31/2/7 36/1/7 37/3/7 42/4/7
f 39/3/8 40/3/8 41/3/8 42/3/8 37/4/8 38/3/8
