# OBJ written from /Users/dathedix/Art/Demiurge/tile 10 - city 3 sides.obj
# Units	meters

o Mesh
v 9.9675 14.025 -10.0374
v 9.9675 14.025 9.96262
v -9.9958 14.025 -10.0374
v -4.5875 14.0449 0.0726244
v -9.9958 -0.024977 -10.0374
v -4.5875 -0.00507049 0.072625
v 9.9675 -0.0249761 9.96262
v 9.9675 -0.024977 -10.0374
v -10.0325 14.025 9.96262
v -10.0325 -0.0249761 9.96262
v -10.0625 0.0050237 9.96262
v -10.0625 0.00502282 -10.0374
v 9.9375 0.00502282 -10.0374
v 9.9375 0.0050237 9.96262
v -10.0625 -29.975 9.96263
v 9.9375 -29.975 9.96263
v 9.9375 -29.975 -10.0374
v -10.0625 -29.975 -10.0374
vn -0.881762 3.20173e-08 0.471695
vn 1 0 0
vn 0 -6.78772e-08 -1
vn 0 1 0
vn 0 -0.999998 0.00196899
vn -0.87601 -2.09719e-08 -0.482293
vn 0 6.78772e-08 1
vn 0 3.18104e-08 1
vn 0 -3.18104e-08 -1
vn -1 0 0
vn 0 1 -4.37023e-08
vn 0 -1 0
vt 0 0
vt 1 0
vt 1 1
vt 0 1
vt 0 0.00183483
vt 0 0.5
mtllib tile 10 - city 3 sides.mtl
usemtl Golden_032Grass
g Default
f 11/2/11 14/3/11 13/4/11 12/1/11
usemtl Ground_032
f 16/3/8 14/3/8 11/2/8 15/2/8
f 17/4/2 13/4/2 14/3/2 16/3/2
f 18/1/9 12/1/9 13/4/9 17/4/9
f 15/2/10 11/2/10 12/1/10 18/1/10
f 15/2/12 18/1/12 17/4/12 16/3/12
usemtl City
f 3/1/1 5/2/1 6/3/1 4/4/1
f 2/1/2 7/2/2 8/3/2 1/4/2
f 1/1/3 8/2/3 5/3/3 3/4/3
f 2/3/4 1/4/4 3/5/4 4/4/4 9/2/4
f 5/2/5 8/3/5 7/3/5 10/3/5 6/3/5
f 4/1/6 6/2/6 10/3/6 9/6/6
f 9/6/7 10/2/7 7/3/7 2/4/7
