# OBJ written from /Users/dathedix/Art/Demiurge/Tile 16 - one city corner wall down.obj
# Units	meters

o Mesh
v 9.9375 0.0250244 9.96262
v 9.9375 0.0250235 -10.0374
v 4.4925 0.0450244 -0.147375
v 9.98892 14.0249 9.96262
v 9.98892 14.0249 -10.0374
v 4.54392 14.0449 -0.147376
v 2.032 0.025023 -10.0326
v -10.0625 0.0250236 1.97499
v -10.0625 0.0250234 -2.01806
v -2.0257 0.0450238 -2.02064
v -2.0293 0.025023 -10.0326
v 2.032 7.02502 -10.0326
v -2.0281 7.04513 1.97305
v -10.0625 7.02508 1.97499
v -10.0625 7.02508 -2.01806
v -2.0257 7.04513 -2.02064
v -2.0293 7.02507 -10.0326
v -2.0281 7.04511 1.98
v 2.00867 0.0250236 1.98
v 2.00867 7.02502 1.98
v -10.0625 0.0050237 9.96262
v -10.0625 0.00502282 -10.0374
v 9.9375 0.00502282 -10.0374
v 9.9375 0.0050237 9.96262
v -10.0625 -29.975 9.96263
v 9.9375 -29.975 9.96263
v 9.9375 -29.975 -10.0374
v -10.0625 -29.975 -10.0374
vn -0.876003 0.00321757 -0.482295
vn -0.880422 0.00323384 0.47418
vn 0.999993 -0.00367328 1.60787e-10
vn 0.00367315 0.999993 0
vn -1 0 0
vn -0.000321934 -3.40593e-08 -1
vn -1 1.53083e-11 0.000449461
vn 0 0 -1
vn 0.999998 0 0.00194176
vn 1.1741e-05 1 -1.68964e-08
vn -0.000414792 5.10893e-08 1
vn 0 3.18104e-08 1
vn 1 0 0
vn 0 -3.18104e-08 -1
vn 0 1 -4.37023e-08
vn 0 -1 0
vt 0 1
vt 1 1
vt 1 0
vt 0 0
mtllib Tile 16 - one city corner wall down.mtl
usemtl Golden_032Grass
g Default
f 21//15 24//15 23//15 22//15
usemtl Ground_032
f 26//12 24//12 21//12 25//12
f 27//13 23//13 24//13 26//13
f 28//14 22//14 23//14 27//14
f 25//5 21//5 22//5 28//5
f 25//16 28//16 27//16 26//16
usemtl City
f 3//1 6//1 5//1 2//1
f 3//2 1//2 4//2 6//2
f 1//3 2//3 5//3 4//3
f 5//4 6//4 4//4
usemtl Wall
f 8//5 14//5 15//5 9//5
f 10//6 9//6 15//6 16//6
f 10//7 16//7 17//7 11//7
f 11//8 17//8 12//8 7//8
f 7//9 12//9 20//9 19//9
f 12//10 17//10 16//10 15//10 14//10 13//10 18//10 20//10
f 14//11 8//11 19//11 20//11
