# OBJ written from /Users/dathedix/Art/Demiurge/tile 2 - city t wall.obj
# Units	meters

o Mesh
v -10.0625 0.0050237 9.96262
v -10.0625 0.00502282 -10.0374
v 9.9375 0.00502282 -10.0374
v 9.9375 0.0050237 9.96262
v -10.0625 -29.975 9.96263
v 9.9375 -29.975 9.96263
v 9.9375 -29.975 -10.0374
v -10.0625 -29.975 -10.0374
v 9.9375 0.0250244 9.96262
v 9.9375 0.0250235 -10.0374
v 4.4925 0.0450244 -0.147375
v 2.032 0.0250244 9.96262
v 1.993 0.0250235 -10.0374
v -2.0275 0.0250235 -10.0374
v -2.0281 0.0450243 -1.99305
v -10.0625 0.0250239 -1.99499
v -10.0625 0.025024 1.99806
v -2.0257 0.0450245 2.00064
v -2.0293 0.0250244 9.96262
v 9.98892 14.0249 9.96262
v 9.98892 14.0249 -10.0374
v 4.54392 14.0449 -0.147376
v 2.032 7.02502 9.96262
v 1.993 7.02502 -10.0374
v -2.0275 7.02507 -10.0374
v -2.0281 7.04513 -1.99305
v -10.0625 7.02508 -1.99499
v -10.0625 7.02508 1.99806
v -2.0257 7.04513 2.00064
v -2.0293 7.02507 9.96262
vn 0 3.18104e-08 1
vn 1 0 0
vn 0 -3.18104e-08 -1
vn -1 0 0
vn 0 1 -4.37023e-08
vn 0 -1 0
vn -1 0 -7.4451e-05
vn 0.000241552 -5.10889e-08 -1
vn -0.000321949 5.10893e-08 1
vn -1 -1.54045e-11 -0.000452284
vn 0 0 1
vn 0.999998 0 -0.00194988
vn 0 0 -1
vn -0.876003 0.00321779 -0.482295
vn -0.880422 0.00323384 0.47418
vn 0.999993 -0.00367328 1.60787e-10
vn 0.00367315 0.999993 0
vn 1.2809e-05 1 -7.26598e-08
vt 1 1
vt 1 0
vt 0 1
vt 0 0
mtllib tile 2 - city t wall.mtl
usemtl Golden_032Grass
g Default
f 1//5 4//5 3//5 2//5
usemtl Ground_032
f 6//1 4//1 1//1 5//1
f 7//2 3//2 4//2 6//2
f 8//3 2//3 3//3 7//3
f 5//4 1//4 2//4 8//4
f 5//6 8//6 7//6 6//6
usemtl City
f 10//14 11//14 22//14 21//14
f 11//15 9//15 20//15 22//15
f 9//16 10//16 21//16 20//16
f 21//17 22//17 20//17
usemtl Wall
f 14//7 15//7 26//7 25//7
f 15//8 16//8 27//8 26//8
f 16//4 17//4 28//4 27//4
f 17//9 18//9 29//9 28//9
f 18//10 19//10 30//10 29//10
f 19//11 12//11 23//11 30//11
f 12//12 13//12 24//12 23//12
f 13//13 14//13 25//13 24//13
f 24//18 25//18 26//18 27//18 28//18 29//18 30//18 23//18
